<?xml version="1.0" encoding="UTF-8"?>
<svg id="_レイヤー_2" data-name="レイヤー_2" xmlns="http://www.w3.org/2000/svg" viewBox="0 0 500.39 125.58">
  <defs>
    <style>
      .cls-1 {
        fill: #fff;
      }
    </style>
  </defs>
  <g id="_レイヤー_1-2" data-name="レイヤー_1">
    <g>
      <path class="cls-1" d="M37.97,81.16c-.19-5.93-.09-11.86-.09-17.51.09-7.91.47-15.44.66-22.96,0-1.69.09-3.39-.09-5.08,0-.28-.09-.66.28-.75.28,0,.56.19.66.56.28.66.28,1.41.28,2.16.09,5.84-.09,11.67-.28,17.51-.28,9.69.09,19.39.09,29.08,0,2.35,0,4.71-.28,7.06-.09.47-.19.85.66.66,10.82-2.92,20.42-7.91,28.05-16.28,4.33-4.71,7.53-10.07,8.47-16.56,1.13-7.72-1.22-14.4-6.49-20.05-3.2-3.39-7.15-5.55-11.48-7.25-2.54-1.04-5.18-1.79-7.81-2.35-3.39-.75-6.87-.94-10.35-.94-7.62-.09-15.06.75-22.31,3.2-5.08,1.69-9.88,3.86-13.74,7.72-1.32,1.41-2.45,2.92-2.82,4.89-.38,1.88.19,3.48,1.69,4.71,2.07,1.6,4.52,2.26,7.06,2.82,6.87,1.51,13.74,2.17,20.71.75,1.41-.28,2.82-.75,4.14-1.41.19-.09.47-.28.66,0,.19.28-.19.47-.38.56-1.22.75-2.54,1.22-3.95,1.51-8.85,1.88-17.41,1.04-25.79-1.98-.94-.38-1.88-.94-2.73-1.6-2.64-1.98-3.67-4.61-1.88-7.91,1.51-2.73,3.76-4.71,6.31-6.4,5.65-3.76,12.05-5.83,18.73-7.06,6.59-1.22,13.18-1.6,19.86-.85,5.74.66,11.29,1.88,16.47,4.61,4.99,2.64,9.22,6.21,12.05,11.2,5.18,9.04,4.8,18.07-.09,27.01-2.16,3.95-5.08,7.34-8.47,10.35-3.95,3.48-8.28,6.31-12.99,8.56-2.64,1.22-5.37,2.26-8.19,3.01l-4.8,1.51c-.66.19-.85.47-.94,1.04-.09,1.13-.28,2.26-.75,3.29-.19.56-.56.94-1.22.85-.28,0-.66,0-.75-.28-.19-.38.19-.47.38-.66.47-.38,1.13-3.01.94-3.48-.19-.38-.47-.19-.75-.19l-5.37.94c-6.68,1.04-13.36,1.69-20.05.75-1.22-.19-2.45-.47-3.58-1.13-.38-.19-.75-.47-1.04-.75-.19-.28-.75-.66-.38-1.04.38-.28.56.28.75.47.94.66,1.98.94,3.01,1.13,3.76.66,7.53.47,11.29.28,5.18-.28,10.26-1.41,15.34-2.54.66-.19.94-.47.94-1.13.19-3.58.09-7.15,0-10.73l.38.66Z"/>
      <path class="cls-1" d="M106.68,60.64c.09.09.09.19.09.28-.09.19-.38.28-.56.38-2.54,1.13-4.24,3.2-5.93,5.18l-1.69,1.98-1.51,1.69c-2.45,2.73-4.99,5.55-8.09,7.81-.94.66-2.07,1.13-3.2,1.41-.47.09-.94.19-1.41.19-.75,0-1.41-.19-1.98-.56-.94-.56-1.6-1.51-1.88-2.73-.28-.94-.38-1.88-.38-2.82.47-5.55,2.26-10.54,5.36-14.87.57-.85,1.22-1.51,1.98-1.98.85-.47,1.79-.56,2.64-.28.85.38,1.41,1.13,1.69,2.07.38,1.51,0,3.01-.38,4.14-1.13,3.48-3.11,6.49-6.12,9.22-.66.66-1.51,1.41-2.54,1.69-.66.19-.75.56-.75,1.13v.28c.28,1.88.75,2.92,1.51,3.29.75.38,1.88,0,3.48-1.13,2.35-1.6,4.33-3.67,6.21-5.65l4.24-4.23c1.6-1.69,3.29-3.48,5.08-5.08.85-.75,1.88-1.41,3.11-1.88.47-.19.94-.09,1.13.28l-.09.19ZM82.49,72.41c-.09.28-.09.38,0,.47.09.09.19,0,.38-.19.47-.28.85-.56,1.22-.94,2.54-2.45,4.42-5.36,5.65-8.66.38-1.04.57-2.16.66-3.39v-.28c0-.19,0-.47-.09-.75-.09-.47-.19-.75-.38-.85h-.09c-.19,0-.47.09-.85.28-.66.38-1.22.94-1.88,1.79-1.69,2.35-2.92,5.08-3.95,8.66-.28.94-.47,1.88-.66,2.82l-.28.85.28.19Z"/>
      <path class="cls-1" d="M141.51,66.38c.28.09.47.28.56.47v-.19c.09.28-.09.66-.28.94l-.28.28-.57,1.69c-1.41,3.29-2.92,6.68-5.18,9.6l-.85,1.13c-1.32,1.69-2.73,3.48-4.52,4.89-.85.66-1.88,1.32-3.11,1.41h-.56c-1.51,0-2.73-.66-3.58-1.98-1.32-2.07-1.79-4.42-2.07-6.59-.28-2.26-.47-4.52-.47-6.78,0-3.11.19-6.21.38-9.04v-.28c0-.28,0-.56-.09-.94l-.85,1.13c-.56.94-1.13,1.79-1.79,2.64l-.85,1.13-1.6,2.35-.75,1.13c-1.98,2.92-4.05,5.93-6.49,8.56l-.94,1.04c-.66.66-1.41,1.41-2.45,1.79-.66.28-1.22.28-1.69,0-.47-.28-.85-.75-1.04-1.41-.38-1.6,0-3.2.38-4.71,2.26-8.56,6.31-15.72,12.05-21.36,2.16-2.07,4.42-3.2,6.87-3.48,1.6-.19,3.58.75,4.42,2.07.85,1.41.85,3.76-.09,4.99-.09.19-.28.47-.56.28-.38-.19-.28-.56-.19-.75.28-.94.56-2.07.19-3.29-.47-1.22-1.22-1.98-2.26-2.07-.38,0-.75,0-1.13.09-2.35.47-4.42,1.79-6.68,4.14-5.08,5.46-8.66,11.95-10.73,19.2-.28,1.04-.38,2.16-.47,3.2l-.28,1.41c0,.28,0,.66.19.75s.38,0,.56-.19c1.69-1.51,3.11-3.29,4.42-5.08l.56-.85c.47-.56.94-1.13,1.32-1.69.47-.66.94-1.32,1.51-1.98,1.69-2.16,3.2-4.61,4.61-6.96l1.98-3.11.28-.28c.09-.19.19-.38.38-.56l.28-.28c.28-.38.56-.85,1.22-.66.85.28,1.32.85,1.41,1.69.09,1.41,0,2.82-.09,4.14-.28,2.92-.47,5.65-.47,8.19s.19,5.08.47,7.34c.19,1.41.57,2.64,1.04,3.67l.47.94c.28.47.47.75.75.94.57.38,1.13.38,2.07,0,1.98-.85,3.39-2.45,4.71-3.95l.09-.09c3.58-4.14,6.12-8.94,8.28-13.46l.19-.28c.09-.38.28-.85.66-.94.19-.09.38-.09.66,0Z"/>
      <path class="cls-1" d="M167.39,65.35v-.09c.85.47.28,1.32-.09,1.98l-1.88,3.29c-1.88,3.29-3.86,6.68-6.12,9.79l-.75,1.04-2.17,2.64-.85.85c-1.69,1.51-3.58.94-4.24-1.22-.09-.28-.19-.66-.19-1.04l-.19-3.29c0-.38.09-.85.09-1.22.28-5.46,1.51-10.82,2.92-16.28.28-1.22.66-2.35,1.04-3.58.75-2.35,1.41-4.8,1.79-7.25v-.56c.09-1.13,0-1.88-.47-2.35-.47-.47-1.22-.47-2.35-.38-.38,0-.85,0-1.22.09-1.6.19-3.11.47-4.8.47-.66,0-1.51-.66-1.88-.09-.28.38.19,1.32.28,1.98,0,.47.09.85.09,1.32.19,3.39-.47,6.59-1.6,9.79-.56,1.41-.94,2.92-1.41,4.42-.09.47-.28.94-.47,1.41-.09.28-.28.56-.66.47-.19,0-.28-.19-.38-.28-.09-.09-.19-.28-.09-.47l.38-1.13c1.41-4.14,2.73-8.19,3.01-12.61v-1.32c0-.38-.09-.75-.09-1.13l-.19-2.26c-.09-.66-.38-1.13-.66-1.6l-.47-.75c-.19-.38-.57-.85-.09-1.22.47-.28.75.19,1.04.47.09.09.19.19.19.28.56,1.6,1.88,1.6,3.2,1.51l5.36-.66c3.11-.28,5.08,1.51,5.08,4.61,0,1.79-.38,3.48-.85,5.18-1.79,6.4-3.39,12.8-4.33,19.39-.38,2.63-.75,5.27-.38,7.91,0,.28-.09.66.19.75.38.19.66-.19.85-.38,1.88-1.69,3.29-3.67,4.71-5.65l.66-1.04c2.26-3.39,4.24-6.96,6.31-10.54.38-.66.75-1.69,1.69-1.22Z"/>
      <path class="cls-1" d="M272.62,57.35c-.47.75-1.13,1.22-1.79,1.69l-.19.19-4.89,3.58c-2.54,1.79-5.18,3.67-7.72,5.65-2.26,1.88-4.33,3.67-6.31,5.46-.47.47-.66.94-.66,1.6s.09,1.41.09,2.07c.09,2.07.19,4.33.19,6.68,0,4.71-.38,9.88-1.51,15.06-1.41,6.49-3.67,11.86-6.96,16.38-3.58,4.99-7.06,7.81-11.29,9.32-1.22.38-2.35.56-3.39.56-1.69,0-3.11-.66-4.33-1.88-1.51-1.51-1.88-3.48-2.07-4.99-.28-2.82.09-5.74,1.22-8.66l.56-1.41c.38-1.22.85-2.45,1.51-3.58l1.13-1.98,1.69-2.92,1.88-3.01,1.13-1.69c1.04-1.51,2.17-3.01,3.39-4.61l3.48-4.42c3.01-3.67,6.31-7.25,10.07-10.92.19-.19.38-.47.47-.75.09-.28.09-.47.09-.85l-.57-6.96c-.38-3.95-.75-8-.94-12.05-.19-4.61-.19-8.85-.09-12.99v-.28c0-.28,0-.56-.09-.85-.38.56-.66,1.13-.94,1.69l-2.26,4.05c-4.14,7.44-8.75,15.25-14.78,22.02-4.8,5.36-9.69,9.51-15.06,12.42l-1.98,1.04c-2.63,1.32-4.89,2.07-7.15,2.45-5.27.75-9.22-2.16-10.07-7.34-.56-3.95.28-7.62,1.32-11.01,1.88-6.59,5.08-13.08,9.69-19.76,6.49-9.51,13.55-16.85,21.55-22.59,3.95-2.82,9.32-6.21,15.81-7.53.85-.19,1.69-.28,2.45-.38,1.51-.09,2.92,0,4.24.38,3.2.94,5.08,3.29,5.37,6.59.28,3.11-.38,6.02-1.98,8.75-.85,1.51-1.88,3.01-3.2,4.71-.47.56-.66,1.13-.66,1.88-.19,2.54-.19,4.99-.19,7.53.09,7.53.75,14.87,1.41,21.55l.56,4.52v.28c0,.28,0,.56.19.75l.75-.66,1.69-1.41c4.24-3.67,8.85-6.87,13.36-9.98l2.54-1.69,1.88-1.41c.19-.09.28-.19.19-.38v-.19c-.09-.09-.19-.19-.19-.28s.09-.19.19-.19c.38-.19.75-.09,1.04.19,0-.09.09-.19.09-.28.38.38.09.75,0,.85ZM242.88,42.1c2.26-1.51,3.58-3.01,4.33-4.89,0,0,0-.09.09-.19.09-.09.19-.28.28-.28.85.09,1.13-.47,1.51-1.04l.28-.56,1.51-2.17c1.79-2.82,2.82-5.27,3.01-8,.19-2.54-.38-4.61-1.6-5.93-1.22-1.32-3.11-1.98-5.46-1.98h-.28c-.38,0-.75,0-1.13.09-3.58.47-7.15,1.79-11.01,3.95-10.64,5.93-19.76,14.68-28.05,26.82-4.24,6.21-7.43,12.71-9.41,19.29-1.04,3.2-1.32,5.83-1.22,8.28,0,.85.09,1.69.28,2.45.75,3.48,3.39,5.74,6.78,5.74,2.54,0,4.89-.94,6.87-1.88,7.06-3.39,13.37-8.56,19.29-15.72,5.36-6.49,9.69-13.93,13.65-20.99l1.41-2.64.56-1.13-.56.28c-.47.28-.85.56-1.32.66h-.09v-.38l.28-.28v.47ZM248.8,89.54c.09-2.64.09-5.27,0-7.72-.09-1.69-.09-3.2-.28-4.8l-.94.94c-3.39,3.39-6.31,6.59-8.94,9.69l-1.51,1.88c-4.52,5.65-9.04,11.86-11.86,19.01-1.22,2.92-2.45,6.87-1.79,11.11.38,2.16,1.32,3.76,2.73,4.61,1.41.85,3.2.85,5.27.09,1.79-.66,3.48-1.69,5.37-3.29,3.67-3.2,6.4-7.44,8.66-13.36,1.98-5.18,3.01-10.92,3.39-17.98,0-.09-.09-.09-.09-.19Z"/>
      <path class="cls-1" d="M294.83,60.64c.09.09.09.19.09.28-.09.19-.38.28-.56.38-2.54,1.13-4.24,3.2-5.93,5.18l-1.69,1.98-1.51,1.69c-2.45,2.73-4.99,5.55-8.09,7.81-.94.66-2.07,1.13-3.2,1.41-.47.09-.94.19-1.41.19-.75,0-1.41-.19-1.98-.56-.94-.56-1.6-1.51-1.88-2.73-.28-.94-.38-1.88-.38-2.82.47-5.55,2.26-10.54,5.36-14.87.56-.85,1.22-1.51,1.98-1.98.85-.47,1.79-.56,2.63-.28.85.38,1.41,1.13,1.69,2.07.38,1.51,0,3.01-.38,4.14-1.13,3.48-3.11,6.49-6.12,9.22-.66.66-1.51,1.41-2.54,1.69-.66.19-.75.56-.75,1.13v.28c.28,1.88.75,2.92,1.51,3.29.75.38,1.88,0,3.48-1.13,2.35-1.6,4.33-3.67,6.21-5.65l4.24-4.23c1.6-1.69,3.29-3.48,5.08-5.08.85-.75,1.88-1.41,3.11-1.88.47-.19.94-.09,1.13.28l-.09.19ZM270.64,72.41c-.09.28-.09.38,0,.47.09.09.19,0,.38-.19.47-.28.85-.56,1.22-.94,2.54-2.45,4.42-5.36,5.65-8.66.38-1.04.56-2.16.66-3.39v-.28c0-.19,0-.47-.09-.75-.09-.47-.19-.75-.38-.85h-.09c-.19,0-.47.09-.85.28-.66.38-1.22.94-1.88,1.79-1.69,2.35-2.92,5.08-3.95,8.66-.28.94-.47,1.88-.66,2.82l-.28.85.28.19Z"/>
      <path class="cls-1" d="M330.41,65.72v.66c-.56,2.73-1.69,5.18-2.63,7.06-.38.66-.66,1.32-.94,1.98-1.22,2.73-2.54,5.55-4.52,7.91-.56.75-1.32,1.69-2.54,1.98-1.6.38-3.11-.28-4.14-1.88-1.22-1.88-1.88-3.95-2.45-5.83-.85-2.73-1.51-5.55-2.07-8.28l-1.13-4.89v-.56c-.09-.66-.19-1.32-.66-1.41-.47-.09-.66.28-.85.94l-.28.56c-2.54,4.52-4.52,9.32-6.4,14.02l-.56,1.41c-2.17,5.27-4.14,10.82-5.74,16.38-.19.66-.38,1.32-.66,1.98v.28c-.09.38-.28.85-.75.85-.75-.09-1.22-.47-1.32-1.13-.19-.85-.38-1.79-.38-2.73-.28-6.02-.38-11.76-.38-17.32,0-4.52.09-8.85.28-13.08.09-2.07.09-4.23.09-6.31v-3.39c0-.09-.09-.19,0-.28,0-.09.19-.19.38-.28.38-.09.66.19.85.38.47.47.47,1.04.47,1.6v3.2c0,2.92,0,5.83-.09,8.66v6.02c-.09,6.31,0,12.89.28,20.8.19-.19.28-.38.38-.56v-.28c2.73-8.94,6.21-17.79,10.54-27.01l.56-1.13c.28-.56.56-1.13.75-1.69.47-1.22,1.41-1.88,2.35-2.54l.28-.28c.56-.38,1.04-.09,1.41.19.75.66,1.04,1.51,1.32,2.35.56,1.69.94,3.48,1.32,5.18.19,1.04.38,2.07.66,3.11l.19.66c.75,3.01,1.51,6.12,2.92,9.04v.47q0,.09.09.09c.56,1.04,1.13,1.6,1.79,1.69.57.09,1.22-.19,2.07-.94.94-.94,1.79-1.98,2.45-3.01.47-.75.94-1.41,1.32-2.17,1.32-2.26,2.45-4.71,3.39-7.15l1.13-2.92.85-1.98.09-.09c.09-.38.19-.75.47-.75.19,0,.38.19.66.56-.28,0-.57-.09-.85-.09Z"/>
      <path class="cls-1" d="M356.48,43.32c.28.19.66.38.47.75-.19.38-.57.19-.85.09-.94-.38-1.98-.75-2.92-.94-1.51-.28-2.92-.47-4.42-.66l-1.6-.28c-3.2-.47-6.4-.75-9.6-.66-1.04,0-2.16.09-3.29.19-.75.09-1.04.38-1.13,1.13,0,.56-.09,1.04-.09,1.6-.28,4.71-.56,9.32-.56,14.02,0,1.6.09,3.11.09,4.71.19,7.53.47,15.06,1.04,22.49.19,2.92.28,5.84.38,8.75,0,.56-.09,1.22-.19,1.79-.09.66-.56.85-1.13.66-.47-.19-.75-.47-.57-1.04.38-1.04.19-2.16.09-3.2l-.56-6.68-.85-11.67c-.28-4.42-.47-8.85-.47-13.36,0-1.69,0-3.39.09-5.08,0-1.04.09-2.17.09-3.2.09-3.2.28-6.31.56-9.51.09-.66-.19-.75-.75-.66-3.67.66-7.15,1.69-10.54,3.2-.47.19-.94.38-1.41.66l-2.26,1.13c-.75.47-1.51.94-2.07,1.6-.47.56-1.22.56-1.88.09v-.28c5.08-3.95,10.92-6.31,17.13-7.62,1.41-.28,1.69-.28,1.88-.85.09-.28.09-.75.19-1.51.28-3.76.66-7.53,1.04-11.29.09-.47,0-1.22.75-1.22.85,0,.85.75.85,1.41,0,1.98-.19,3.86-.28,5.83-.09,1.41-.19,2.92-.19,4.33,0,.28-.09.56-.09.85-.09,1.51-.19,1.6,1.32,1.51,1.04-.09,2.17-.09,3.2-.09,5.83,0,11.48,1.13,17.13,2.45.56.09,1.04.28,1.51.66l-.09-.09Z"/>
      <path class="cls-1" d="M347.07,43.98l.47.28c-.28.47-.38.94-.38,1.41v5.08c.09,8.47.47,16.94,1.22,25.41l.28,2.45c1.13,9.79,2.92,19.39,5.18,28.99.47,2.07,1.13,4.05,1.69,6.12l.57,2.07c.09.47.19.85.75.94.66.09,1.32,2.45.75,2.92-.57.47-1.13.19-1.51-.38-.57-1.04-.94-2.16-1.32-3.29-.56-1.6-1.04-3.29-1.51-4.89-1.6-5.74-2.82-11.48-3.95-17.22-.38-1.69-.66-3.48-.94-5.18-2.17-12.99-3.01-26.16-3.11-39.34v-1.32c-1.79,2.35-3.58,4.8-5.46,7.06l-2.82,3.39-1.13,1.32c-.85.85-1.69,1.69-2.64,2.45-.47.38-.94.75-1.6.85-.28.09-.56.09-.75-.19-.19-.19-.09-.38,0-.56.19-.28.47-.75.75-.56.75.47,1.04-.19,1.41-.56,2.63-2.54,4.89-5.46,7.06-8.38l1.22-1.69,2.26-3.48,1.22-1.79c.38-.56.47-1.13.47-1.79.19-8.66.66-17.22,1.79-25.79.19-1.69.47-3.48.75-5.18.57-3.29,1.22-6.59,2.54-9.69.19-.47.38-.94.66-1.41s.57-.85.94-1.22c.94-.94,1.79-1.04,2.92-.28,1.22.85,1.79,2.16,2.26,3.48,1.04,3.2,1.13,6.49.94,9.88-.09,2.82-.94,5.55-1.51,8.28-1.13,5.46-3.29,10.64-5.93,15.62-1.13,2.07-2.35,4.14-3.58,6.21ZM347.45,35.61c-.09,2.07-.09,4.14-.09,6.21.28-.19.38-.28.38-.38,3.67-6.68,6.87-13.55,8.47-20.99l.47-2.82c.47-2.92.66-5.83.47-8.75-.19-2.26-.57-4.52-1.69-6.49-.66-1.13-1.22-1.13-2.07-.09-.57.66-.94,1.41-1.32,2.16-1.13,2.82-1.79,5.74-2.35,8.75-.94,5.36-1.51,10.73-1.88,16.19v.09c-.19,2.07-.28,4.05-.38,6.12Z"/>
      <path class="cls-1" d="M386.79,60.64c.09.09.09.19.09.28-.09.19-.38.28-.56.38-2.54,1.13-4.24,3.2-5.93,5.18l-1.69,1.98-1.51,1.69c-2.45,2.73-4.99,5.55-8.09,7.81-.94.66-2.07,1.13-3.2,1.41-.47.09-.94.19-1.41.19-.75,0-1.41-.19-1.98-.56-.94-.56-1.6-1.51-1.88-2.73-.28-.94-.38-1.88-.38-2.82.47-5.55,2.26-10.54,5.36-14.87.56-.85,1.22-1.51,1.98-1.98.85-.47,1.79-.56,2.63-.28.85.38,1.41,1.13,1.69,2.07.38,1.51,0,3.01-.38,4.14-1.13,3.48-3.11,6.49-6.12,9.22-.66.66-1.51,1.41-2.54,1.69-.66.19-.75.56-.75,1.13v.28c.28,1.88.75,2.92,1.51,3.29.75.38,1.88,0,3.48-1.13,2.35-1.6,4.33-3.67,6.21-5.65l4.24-4.23c1.6-1.69,3.29-3.48,5.08-5.08.85-.75,1.88-1.41,3.11-1.88.47-.19.94-.09,1.13.28l-.09.19ZM362.6,72.41c-.09.28-.09.38,0,.47.09.09.19,0,.38-.19.47-.28.85-.56,1.22-.94,2.54-2.45,4.42-5.36,5.65-8.66.38-1.04.56-2.16.66-3.39v-.28c0-.19,0-.47-.09-.75-.09-.47-.19-.75-.38-.85h-.09c-.19,0-.47.09-.85.28-.66.38-1.22.94-1.88,1.79-1.69,2.35-2.92,5.08-3.95,8.66-.28.94-.47,1.88-.66,2.82l-.28.85.28.19Z"/>
      <path class="cls-1" d="M440.06,54.43c.47,0-.19,2.07-.75,3.01-1.41,2.07-2.92,4.05-4.42,6.02-1.04,1.32-2.16,2.54-3.29,3.76l-1.13,1.13c-1.69,1.88-3.67,3.29-5.93,4.33-1.32.56-2.73.94-4.14.94-1.04,0-2.07-.28-3.11-.75-1.04-.47-1.98-1.13-2.82-1.88l-.85-.85c-.56-.56-1.13-1.22-1.69-1.32-.47,0-.75.56-.94,1.22l-.28.85-.75,2.92c-.28,1.32-.66,2.54-1.04,3.86l-.56,1.41c-.28.85-.28,1.79-.75,2.64l-.75,1.41c-.38.66-1.32.94-2.07.75-.28-.09-.47,0-.75-.28-.19-.19-.38-.47-.47-.75-.47-.75-.75-1.51-.94-2.35l-.66-2.73-.56-3.39-.56-3.67-.57-3.39c-.28-1.98-.56-3.95-1.32-5.83l-.56-1.13c-.66.47-1.04,1.13-1.41,1.79-.94,1.79-1.69,3.58-2.35,5.46-.28.94-.66,1.88-1.04,2.82-.47,1.22-.94,2.54-1.22,3.86l-.75,3.01c-.57,1.98-1.13,4.05-1.51,6.12-.38,1.98-.75,3.95-1.04,5.93-.28,1.6-.47,3.2-.66,4.8-.19,1.22-.38,2.45-.47,3.67-.28.56-.75.66-1.32.56l-.38-.28c-.09-.09-.19-.28-.19-.38-.19-.94-.28-1.98-.28-2.82,0-.56,0-1.13-.09-1.69-.19-.94-.09-1.98-.09-2.92s0-1.98-.09-2.92c-.09-.94-.09-1.88-.09-2.92,0-.94,0-1.98-.09-3.01-.09-.94-.09-1.88-.09-2.82s0-1.88-.09-2.82c-.09-.66-.09-1.22-.09-1.88,0-.94-.09-1.98-.19-2.92-.09-.66-.09-1.32-.09-1.98s0-1.41-.09-2.07c-.19-.66-.19-1.32-.19-2.07,0-.66-.09-1.41-.19-2.16-.09-.66-.19-1.41-.19-2.17,0-.38-.09-.75-.09-1.13-.09-1.22-.19-2.45-.56-3.58-.09-.38-.19-.75-.56-.94-.09,0-.19-.09-.09-.19,1.13-.47,2.16,0,2.54,1.13.19.75.38,1.51.47,2.26.19,1.41.38,2.82.47,4.23.09.94.09,1.88.28,2.82.09.94.09,1.79.09,2.73,0,.28,0,.66.09.94,0,.28.09.66.09.94,0,.94-.09,1.79.09,2.73.28,1.69,0,3.39.19,5.08.28,1.79.09,3.67.28,5.46.19,1.32.19,2.63.28,3.95.28-1.6.56-3.2.94-4.8.75-3.58,1.79-7.15,2.82-10.73.47-1.6,1.13-3.29,1.69-4.89l1.04-2.92c.38-1.04.94-2.07,1.51-3.11.38-.66.75-1.41,1.6-1.79,1.13-.09,1.98.28,2.64,1.22.94,1.51,1.41,3.11,1.69,4.8.19.94.38,1.88.47,2.82l.19,1.13.38,2.16.56,3.39c.19,1.88.66,3.67.94,5.46.09.66.19,1.6.66,1.98.57.28,1.04-1.32,1.22-2.07.75-2.92,1.22-5.93,1.98-8.85.38-1.51.94-3.11,2.07-3.48,1.51-.38,2.73.28,3.76,1.32.19.28.47.47.75.66.75.66,1.41,1.41,2.26,1.98.85.56,1.88.85,2.92.94.66.09,1.32-.09,1.98-.28,2.26-.56,4.33-1.79,6.12-3.29l.75-.66c1.69-1.6,3.2-3.48,4.71-5.36l.66-.85c1.88-2.26,3.58-4.61,5.18-7.06.09-.19.28-.38.47-.47l.47.19Z"/>
      <path class="cls-1" d="M463.97,60.64c.09.09.09.19.09.28-.09.19-.38.28-.56.38-2.54,1.13-4.24,3.2-5.93,5.18l-1.69,1.98-1.51,1.69c-2.45,2.73-4.99,5.55-8.09,7.81-.94.66-2.07,1.13-3.2,1.41-.47.09-.94.19-1.41.19-.75,0-1.41-.19-1.98-.56-.94-.56-1.6-1.51-1.88-2.73-.28-.94-.38-1.88-.38-2.82.47-5.55,2.26-10.54,5.36-14.87.56-.85,1.22-1.51,1.98-1.98.85-.47,1.79-.56,2.63-.28.85.38,1.41,1.13,1.69,2.07.38,1.51,0,3.01-.38,4.14-1.13,3.48-3.11,6.49-6.12,9.22-.66.66-1.51,1.41-2.54,1.69-.66.19-.75.56-.75,1.13v.28c.28,1.88.75,2.92,1.51,3.29.75.38,1.88,0,3.48-1.13,2.35-1.6,4.33-3.67,6.21-5.65l4.24-4.23c1.6-1.69,3.29-3.48,5.08-5.08.85-.75,1.88-1.41,3.11-1.88.47-.19.94-.09,1.13.28l-.09.19ZM439.78,72.41c-.09.28-.09.38,0,.47.09.09.19,0,.38-.19.47-.28.85-.56,1.22-.94,2.54-2.45,4.42-5.36,5.65-8.66.38-1.04.56-2.16.66-3.39v-.28c0-.19,0-.47-.09-.75-.09-.47-.19-.75-.38-.85h-.09c-.19,0-.47.09-.85.28-.66.38-1.22.94-1.88,1.79-1.69,2.35-2.92,5.08-3.95,8.66-.28.94-.47,1.88-.66,2.82l-.28.85.28.19Z"/>
      <path class="cls-1" d="M499.55,65.72v.66c-.56,2.73-1.69,5.18-2.63,7.06-.38.66-.66,1.32-.94,1.98-1.22,2.73-2.54,5.55-4.52,7.91-.56.75-1.32,1.69-2.54,1.98-1.6.38-3.11-.28-4.14-1.88-1.22-1.88-1.88-3.95-2.45-5.83-.85-2.73-1.51-5.55-2.07-8.28l-1.13-4.89v-.56c-.09-.66-.19-1.32-.66-1.41-.47-.09-.66.28-.85.94l-.28.56c-2.54,4.52-4.52,9.32-6.4,14.02l-.56,1.41c-2.17,5.27-4.14,10.82-5.74,16.38-.19.66-.38,1.32-.66,1.98v.28c-.09.38-.28.85-.75.85-.75-.09-1.22-.47-1.32-1.13-.19-.85-.38-1.79-.38-2.73-.28-6.02-.38-11.76-.38-17.32,0-4.52.09-8.85.28-13.08.09-2.07.09-4.23.09-6.31v-3.39c0-.09-.09-.19,0-.28,0-.09.19-.19.38-.28.38-.09.66.19.85.38.47.47.47,1.04.47,1.6v3.2c0,2.92,0,5.83-.09,8.66v6.02c-.09,6.31,0,12.89.28,20.8.19-.19.28-.38.38-.56v-.28c2.73-8.94,6.21-17.79,10.54-27.01l.56-1.13c.28-.56.56-1.13.75-1.69.47-1.22,1.41-1.88,2.35-2.54l.28-.28c.56-.38,1.04-.09,1.41.19.75.66,1.04,1.51,1.32,2.35.56,1.69.94,3.48,1.32,5.18.19,1.04.38,2.07.66,3.11l.19.66c.75,3.01,1.51,6.12,2.92,9.04v.47q0,.09.09.09c.56,1.04,1.13,1.6,1.79,1.69.57.09,1.22-.19,2.07-.94.94-.94,1.79-1.98,2.45-3.01.47-.75.94-1.41,1.32-2.17,1.32-2.26,2.45-4.71,3.39-7.15l1.13-2.92.85-1.98.09-.09c.09-.38.19-.75.47-.75.19,0,.38.19.66.56-.28,0-.57-.09-.85-.09Z"/>
    </g>
  </g>
</svg>