<?xml version="1.0" encoding="UTF-8"?>
<svg id="_レイヤー_2" data-name="レイヤー_2" xmlns="http://www.w3.org/2000/svg" viewBox="0 0 382.08 108.91">
  <defs>
    <style>
      .cls-1 {
        fill: #231815;
      }
    </style>
  </defs>
  <g id="_レイヤー_1-2" data-name="レイヤー_1">
    <g>
      <path class="cls-1" d="M37.97,81.2c-.19-5.93-.09-11.86-.09-17.51.09-7.91.47-15.44.66-22.96,0-1.69.09-3.39-.09-5.08,0-.28-.09-.66.28-.75.28,0,.56.19.66.56.28.66.28,1.41.28,2.16.09,5.84-.09,11.67-.28,17.51-.28,9.69.09,19.39.09,29.08,0,2.35,0,4.71-.28,7.06-.09.47-.19.85.66.66,10.82-2.92,20.42-7.91,28.05-16.28,4.33-4.71,7.53-10.07,8.47-16.56,1.13-7.72-1.22-14.4-6.49-20.05-3.2-3.39-7.15-5.55-11.48-7.25-2.54-1.04-5.18-1.79-7.81-2.35-3.39-.75-6.87-.94-10.35-.94-7.62-.09-15.06.75-22.31,3.2-5.08,1.69-9.88,3.86-13.74,7.72-1.32,1.41-2.45,2.92-2.82,4.89-.38,1.88.19,3.48,1.69,4.71,2.07,1.6,4.52,2.26,7.06,2.82,6.87,1.51,13.74,2.17,20.71.75,1.41-.28,2.82-.75,4.14-1.41.19-.09.47-.28.66,0,.19.28-.19.47-.38.56-1.22.75-2.54,1.22-3.95,1.51-8.85,1.88-17.41,1.04-25.79-1.98-.94-.38-1.88-.94-2.73-1.6-2.64-1.98-3.67-4.61-1.88-7.91,1.51-2.73,3.76-4.71,6.31-6.4,5.65-3.76,12.05-5.83,18.73-7.06,6.59-1.22,13.18-1.6,19.86-.85,5.74.66,11.29,1.88,16.47,4.61,4.99,2.64,9.22,6.21,12.05,11.2,5.18,9.04,4.8,18.07-.09,27.01-2.16,3.95-5.08,7.34-8.47,10.35-3.95,3.48-8.28,6.31-12.99,8.56-2.64,1.22-5.36,2.26-8.19,3.01l-4.8,1.51c-.66.19-.85.47-.94,1.04-.09,1.13-.28,2.26-.75,3.29-.19.56-.56.94-1.22.85-.28,0-.66,0-.75-.28-.19-.38.19-.47.38-.66.47-.38,1.13-3.01.94-3.48-.19-.38-.47-.19-.75-.19l-5.36.94c-6.68,1.04-13.36,1.69-20.05.75-1.22-.19-2.45-.47-3.58-1.13-.38-.19-.75-.47-1.04-.75-.19-.28-.75-.66-.38-1.04.38-.28.56.28.75.47.94.66,1.98.94,3.01,1.13,3.76.66,7.53.47,11.29.28,5.18-.28,10.26-1.41,15.34-2.54.66-.19.94-.47.94-1.13.19-3.58.09-7.15,0-10.73l.38.66Z"/>
      <path class="cls-1" d="M106.68,60.68c.09.09.09.19.09.28-.09.19-.38.28-.56.38-2.54,1.13-4.24,3.2-5.93,5.18l-1.69,1.98-1.51,1.69c-2.45,2.73-4.99,5.55-8.09,7.81-.94.66-2.07,1.13-3.2,1.41-.47.09-.94.19-1.41.19-.75,0-1.41-.19-1.98-.56-.94-.56-1.6-1.51-1.88-2.73-.28-.94-.38-1.88-.38-2.82.47-5.55,2.26-10.54,5.36-14.87.56-.85,1.22-1.51,1.98-1.98.85-.47,1.79-.56,2.64-.28.85.38,1.41,1.13,1.69,2.07.38,1.51,0,3.01-.38,4.14-1.13,3.48-3.11,6.49-6.12,9.22-.66.66-1.51,1.41-2.54,1.69-.66.19-.75.56-.75,1.13v.28c.28,1.88.75,2.92,1.51,3.29.75.38,1.88,0,3.48-1.13,2.35-1.6,4.33-3.67,6.21-5.65l4.23-4.23c1.6-1.69,3.29-3.48,5.08-5.08.85-.75,1.88-1.41,3.11-1.88.47-.19.94-.09,1.13.28l-.09.19ZM82.49,72.45c-.09.28-.09.38,0,.47.09.09.19,0,.38-.19.47-.28.85-.56,1.22-.94,2.54-2.45,4.42-5.36,5.65-8.66.38-1.04.56-2.16.66-3.39v-.28c0-.19,0-.47-.09-.75-.09-.47-.19-.75-.38-.85h-.09c-.19,0-.47.09-.85.28-.66.38-1.22.94-1.88,1.79-1.69,2.35-2.92,5.08-3.95,8.66-.28.94-.47,1.88-.66,2.82l-.28.85.28.19Z"/>
      <path class="cls-1" d="M141.51,66.42c.28.09.47.28.56.47v-.19c.09.28-.09.66-.28.94l-.28.28-.56,1.69c-1.41,3.29-2.92,6.68-5.18,9.6l-.85,1.13c-1.32,1.69-2.73,3.48-4.52,4.89-.85.66-1.88,1.32-3.11,1.41h-.56c-1.51,0-2.73-.66-3.58-1.98-1.32-2.07-1.79-4.42-2.07-6.59-.28-2.26-.47-4.52-.47-6.78,0-3.11.19-6.21.38-9.04v-.28c0-.28,0-.56-.09-.94l-.85,1.13c-.56.94-1.13,1.79-1.79,2.64l-.85,1.13-1.6,2.35-.75,1.13c-1.98,2.92-4.05,5.93-6.49,8.56l-.94,1.04c-.66.66-1.41,1.41-2.45,1.79-.66.28-1.22.28-1.69,0-.47-.28-.85-.75-1.04-1.41-.38-1.6,0-3.2.38-4.71,2.26-8.56,6.31-15.72,12.05-21.36,2.16-2.07,4.42-3.2,6.87-3.48,1.6-.19,3.58.75,4.42,2.07.85,1.41.85,3.76-.09,4.99-.09.19-.28.47-.56.28-.38-.19-.28-.56-.19-.75.28-.94.56-2.07.19-3.29-.47-1.22-1.22-1.98-2.26-2.07-.38,0-.75,0-1.13.09-2.35.47-4.42,1.79-6.68,4.14-5.08,5.46-8.66,11.95-10.73,19.2-.28,1.04-.38,2.16-.47,3.2l-.28,1.41c0,.28,0,.66.19.75s.38,0,.56-.19c1.69-1.51,3.11-3.29,4.42-5.08l.56-.85c.47-.56.94-1.13,1.32-1.69.47-.66.94-1.32,1.51-1.98,1.69-2.16,3.2-4.61,4.61-6.96l1.98-3.11.28-.28c.09-.19.19-.38.38-.56l.28-.28c.28-.38.56-.85,1.22-.66.85.28,1.32.85,1.41,1.69.09,1.41,0,2.82-.09,4.14-.28,2.92-.47,5.65-.47,8.19s.19,5.08.47,7.34c.19,1.41.56,2.64,1.04,3.67l.47.94c.28.47.47.75.75.94.56.38,1.13.38,2.07,0,1.98-.85,3.39-2.45,4.71-3.95l.09-.09c3.58-4.14,6.12-8.94,8.28-13.46l.19-.28c.09-.38.28-.85.66-.94.19-.09.38-.09.66,0Z"/>
      <path class="cls-1" d="M167.39,65.39v-.09c.85.47.28,1.32-.09,1.98l-1.88,3.29c-1.88,3.29-3.86,6.68-6.12,9.79l-.75,1.04-2.17,2.64-.85.85c-1.69,1.51-3.58.94-4.24-1.22-.09-.28-.19-.66-.19-1.04l-.19-3.29c0-.38.09-.85.09-1.22.28-5.46,1.51-10.82,2.92-16.28.28-1.22.66-2.35,1.04-3.58.75-2.35,1.41-4.8,1.79-7.25v-.56c.09-1.13,0-1.88-.47-2.35-.47-.47-1.22-.47-2.35-.38-.38,0-.85,0-1.22.09-1.6.19-3.11.47-4.8.47-.66,0-1.51-.66-1.88-.09-.28.38.19,1.32.28,1.98,0,.47.09.85.09,1.32.19,3.39-.47,6.59-1.6,9.79-.56,1.41-.94,2.92-1.41,4.42-.09.47-.28.94-.47,1.41-.09.28-.28.56-.66.47-.19,0-.28-.19-.38-.28-.09-.09-.19-.28-.09-.47l.38-1.13c1.41-4.14,2.73-8.19,3.01-12.61v-1.32c0-.38-.09-.75-.09-1.13l-.19-2.26c-.09-.66-.38-1.13-.66-1.6l-.47-.75c-.19-.38-.56-.85-.09-1.22.47-.28.75.19,1.04.47.09.09.19.19.19.28.56,1.6,1.88,1.6,3.2,1.51l5.36-.66c3.11-.28,5.08,1.51,5.08,4.61,0,1.79-.38,3.48-.85,5.18-1.79,6.4-3.39,12.8-4.33,19.39-.38,2.63-.75,5.27-.38,7.91,0,.28-.09.66.19.75.38.19.66-.19.85-.38,1.88-1.69,3.29-3.67,4.71-5.65l.66-1.04c2.26-3.39,4.24-6.96,6.31-10.54.38-.66.75-1.69,1.69-1.22Z"/>
      <path class="cls-1" d="M184.05,97.48c.66-.47,1.41-.85,2.17-1.13l.66-.19c.85-.28,1.69-.47,2.63-.56.38,0,.75,0,1.13-.09.38,0,.75-.09,1.13-.19h.85c.75,0,1.51-.09,2.26,0,.19,0,.38-.09.57-.09h1.51c.09,0,.19-.09.28-.19l.94-.75.47-.38.85-.66,2.35-2.26c.85-.94,1.6-1.88,2.35-2.82l1.98-2.73.85-1.41,1.69-2.92,1.51-2.82c.57-1.22,1.13-2.45,1.6-3.76l.28-.66c.75-1.98,1.51-3.95,2.07-5.93l.19-.66c.66-2.26,1.32-4.52,1.79-6.87.38-1.51.66-3.01.94-4.52s.47-3.01.66-4.52l.28-2.82.28-2.54.28-1.69v-.28c0-.85,0-1.69.09-2.54.09-1.69.09-3.39.09-5.08v-6.59c0-1.13-.09-2.26-.19-3.39v-.28c0-1.22,0-2.45-.09-3.67,0-.85-.09-1.69-.19-2.54v-1.69c0-.75,0-1.51-.09-2.26,0-.66-.09-1.32-.19-1.98-.09-.66-.09-1.32-.09-1.98l-.28-1.98v-1.41c0-.66,0-1.32-.09-1.98,0-.56-.09-1.13-.19-1.69-.09-.85-.09-1.6-.09-2.45V.07c.09-.09.19-.09.28,0,.28.09.47.28.56.56,0,.28,0,.56.09.75,0,.28.09.47.19.66,0,.09,0,.19-.09.28-.09.09-.09.19-.09.28v.56l.28,2.26.28,1.98.28,2.54c.09.47.09.94.09,1.41l.28,1.69c0,.47.09.94.09,1.41l.56,6.21c.09.66.09,1.32.09,1.98l.28,2.54v.28c0,.94,0,1.88.09,2.82l.19,2.45c.09,1.13.09,2.26.09,3.39v10.73c0,.66-.09,1.32-.19,1.98v1.41l-.28,2.82-.28,1.98-.28,1.41-.57,3.11-.66,3.39-.94,3.67c-.47,1.98-1.04,3.95-1.69,5.84l-1.13,3.11-1.41,3.39-.94,1.88-.66,1.22c-.38.85-.75,1.6-1.22,2.35l-.66,1.13c-.75,1.22-1.41,2.45-2.26,3.58l-.85,1.13-1.13,1.41-.85.85c-.19.28-.38.56-.66.85l-2.26,2.26-1.32,1.13-.85.85-.19.28h.28l1.69.28,1.13.28c.19,0,.47.09.66.09l1.32.19c.19,0,.47,0,.66.09l1.98.56,2.63.66.66.19,1.32.38.66.19,1.88.56.57.19,1.13.28.56.19,1.79.56,2.63.75c1.13.38,2.35.75,3.58,1.04l2.35.56,2.54.47,3.39.75c.19.09.47.19.66.19l1.32.19c1.41.28,2.82.56,4.24.75l1.13.28,2.26.28,1.13.28,1.32.19c.19,0,.47.09.66.09l1.41.28c.28.09.56.19.85.19l1.88.19c.19,0,.47.09.66.09.38.09.75.19,1.13.19.38.09.75.09,1.13.09h1.13c.47.09.94.19,1.41.19.47.09.94.09,1.41.09.38,0,.75.09,1.13.19h8.85c.66,0,1.41,0,2.16-.09.56,0,1.13-.09,1.69-.19l1.51-.28.66-.19c.38-.09.75-.28,1.13-.47.38-.19.75-.09,1.04.28.09.19.09.38-.09.47l-1.13.66c-.66.19-1.32.38-1.98.47-.47.09-.85.19-1.32.19h-.66c-.57,0-1.13.09-1.69.09h-2.54c-.57,0-1.13.09-1.69,0-.47.09-.94,0-1.41,0s-.94-.09-1.41-.09-.94,0-1.41-.09h-1.69c-.38,0-.75,0-1.13-.09-.47-.09-.94-.09-1.41-.09-.19,0-.38-.09-.56-.09-.38,0-.75,0-1.13-.09-.38,0-.75-.09-1.13-.19l-1.32-.19c-.19,0-.47-.09-.66-.09-.38,0-.75,0-1.04-.09-.85-.19-1.79-.19-2.64-.28-.38,0-.75-.09-1.13-.19l-1.13-.19-1.32-.28c-.19,0-.47-.09-.66-.09s-.47-.09-.66-.09l-1.32-.19c-.19,0-.38-.09-.57-.09l-1.69-.19c-.19,0-.38-.09-.57-.09l-1.13-.19c-.19,0-.38,0-.56-.09-.19,0-.38-.09-.57-.19-.19,0-.38-.09-.56-.09l-1.13-.19-1.98-.47-.66-.19-2.73-.66-1.69-.28-2.26-.56-3.11-.85-1.13-.28-2.82-.85-1.98-.56c-1.13-.38-2.26-.75-3.39-1.04l-2.82-.85-2.35-.56-1.69-.38c-.19,0-.38,0-.57-.09l-3.67-.75c-.75-.19-1.51-.28-2.26-.38-.38,0-.66.09-.94.38s-.66.47-1.04.66c-.56.38-1.13.66-1.69.94-.85.56-1.79,1.04-2.73,1.41l-1.22.47c-.66.19-1.32.47-1.98.56-.66.09-1.04.19-1.51.19s-.85.09-1.41,0c-.66,0-1.32-.19-1.88-.47-.38-.19-.66-.56-.85-1.04l-.28-.28c-.09,0-.19-.09-.28-.09v-.28c.09-.09.19-.19.19-.28.19-.47.57-.85.94-1.22ZM188.95,99.65c.85-.28,1.69-.66,2.54-1.04.09,0,.19,0,.28-.09l1.69-.85-.38-.19c.75-.38,1.41-.85,2.07-1.41h-2.54c-.66,0-1.41.09-2.07.09h-.47l-2.26.47c-.85.19-1.6.47-2.35.85-.47.28-.94.66-1.32,1.13-.09.09-.19.28-.19.38-.09.38.09.94.66,1.04.75.19,1.51.19,2.26.09.75-.09,1.41-.28,2.07-.47Z"/>
      <path class="cls-1" d="M273.75,66.42c.28.09.47.28.57.47v-.19c.09.28-.09.66-.28.94l-.28.28-.56,1.69c-1.41,3.29-2.92,6.68-5.18,9.6l-.85,1.13c-1.32,1.69-2.73,3.48-4.52,4.89-.85.66-1.88,1.32-3.11,1.41h-.57c-1.51,0-2.73-.66-3.58-1.98-1.32-2.07-1.79-4.42-2.07-6.59-.28-2.26-.47-4.52-.47-6.78,0-3.11.19-6.21.38-9.04v-.28c0-.28,0-.56-.09-.94l-.85,1.13c-.56.94-1.13,1.79-1.79,2.64l-.85,1.13-1.6,2.35-.75,1.13c-1.98,2.92-4.05,5.93-6.49,8.56l-.94,1.04c-.66.66-1.41,1.41-2.45,1.79-.66.28-1.22.28-1.69,0-.47-.28-.85-.75-1.04-1.41-.38-1.6,0-3.2.38-4.71,2.26-8.56,6.31-15.72,12.05-21.36,2.17-2.07,4.42-3.2,6.87-3.48,1.6-.19,3.58.75,4.42,2.07.85,1.41.85,3.76-.09,4.99-.09.19-.28.47-.56.28-.38-.19-.28-.56-.19-.75.28-.94.56-2.07.19-3.29-.47-1.22-1.22-1.98-2.26-2.07-.38,0-.75,0-1.13.09-2.35.47-4.42,1.79-6.68,4.14-5.08,5.46-8.66,11.95-10.73,19.2-.28,1.04-.38,2.16-.47,3.2l-.28,1.41c0,.28,0,.66.19.75.19.09.38,0,.57-.19,1.69-1.51,3.11-3.29,4.42-5.08l.57-.85c.47-.56.94-1.13,1.32-1.69.47-.66.94-1.32,1.51-1.98,1.69-2.16,3.2-4.61,4.61-6.96l1.98-3.11.28-.28c.09-.19.19-.38.38-.56l.28-.28c.28-.38.56-.85,1.22-.66.85.28,1.32.85,1.41,1.69.09,1.41,0,2.82-.09,4.14-.28,2.92-.47,5.65-.47,8.19s.19,5.08.47,7.34c.19,1.41.56,2.64,1.04,3.67l.47.94c.28.47.47.75.75.94.56.38,1.13.38,2.07,0,1.98-.85,3.39-2.45,4.71-3.95l.09-.09c3.58-4.14,6.12-8.94,8.28-13.46l.19-.28c.09-.38.28-.85.66-.94.19-.09.38-.09.66,0Z"/>
      <path class="cls-1" d="M297.47,101.34c0,.19.09.28.09.38s-.09.28-.28.28c-.47.09-.94.09-1.13-.38-.28-.66-.47-1.32-.56-1.98-1.98-9.32-3.67-18.64-4.42-28.05l-.28-4.42c-.19-3.76-.19-7.44-.09-11.2.09-3.01.38-5.93.66-8.94.19-2.07.28-4.24.66-6.31,0-.28,0-.56-.19-.85-1.32,4.24-2.45,8.47-4.14,12.52-.28.66-.19.94.56,1.13.66.09,1.13.47,1.41,1.04.09.28.28.56-.09.75-.28.09-.47,0-.56-.28l-.28-.56c-.56-.66-1.41-.56-1.79.28-1.04,2.26-2.17,4.42-3.39,6.59-.66,1.22-1.32,2.35-2.07,3.48l-1.04,1.69c-.75,1.22-1.6,2.45-2.45,3.58l-1.41,1.69c-.94,1.04-1.88,1.98-3.01,2.82-.38.28-.85.56-1.32.75-1.98.75-3.39-.28-3.2-2.35.19-2.16,1.22-4.05,2.26-5.83,2.73-4.52,6.02-8.47,10.35-11.48.94-.66,1.98-1.32,3.11-1.6.94-.28,1.22-.94,1.51-1.69,2.45-5.93,4.24-12.05,5.65-18.26.56-2.64,1.22-5.18,1.88-7.72.09-.47,0-1.22.85-1.04.85.19,1.13.75,1.04,1.51-.19,2.07-.38,4.14-.75,6.21-1.51,9.04-2.17,18.07-2.17,27.2,0,3.01,0,6.12.19,9.13.28,5.74,1.04,11.48,1.79,17.22.66,4.89,1.51,9.79,2.63,14.68ZM273.47,72.35c2.82-2.64,5.18-5.74,7.15-9.04l-.09-.09c1.6-2.64,3.11-5.36,4.33-8.28-.66.09-1.04.38-1.41.66-5.55,3.58-9.41,8.56-12.24,14.4-.28.56-.38,1.04-.57,1.6-.19.56-.28,1.22-.28,1.79,0,.85.28,1.13,1.04.66.75-.47,1.41-1.04,2.07-1.69Z"/>
      <path class="cls-1" d="M319.96,61.06c.28.28,0,1.32,0,1.32-.19.75-.38,1.51-.66,2.17-1.98,4.24-4.05,8.75-6.78,12.99l-.56.75c-.47.66-.94,1.41-1.51,2.07-.38.47-.85.85-1.32,1.22-.47.38-1.04.66-1.51.75-.28.09-.47.09-.75.09-.19,0-.38,0-.57-.09-.94-.28-1.69-1.04-2.16-2.17-.85-1.88-.94-3.95-1.04-5.93v-2.82c.09-3.95.38-7.53.85-11.01,0-.28.09-.47.19-.66.09-.28.19-.56.19-.94v-.09s0-.09.09-.19l.28-.19c.09,0,.28-.09.38-.09.19,0,.28.09.38.19s.19.28.19.47v.85c0,.56,0,1.13-.28,1.69-.38.85-.38,1.79-.38,2.73v3.2c0,.56-.09,1.22-.09,1.79-.09,1.22-.09,2.35-.09,3.58,0,.94.09,1.79.19,2.73v.19c.09,1.41.28,2.92.85,4.24.28.66.57.94.85,1.04.28.09.66-.09,1.22-.56,1.32-1.04,2.26-2.45,3.29-3.95,1.98-3.11,3.95-6.68,6.02-11.01l.94-1.88.56-1.04.38-.75q.19-.47.75-.75c.19-.09.28-.09.38,0-.09,0-.19.09-.28.09ZM308.1,38.38l.28-.19c-.28,0-.57-.09-.75-.38-.28-.38,0-.75.19-1.04.09-.19.19-.28.09-.56-.19-.38-.19-.75,0-1.04.28-.38.75-.56,1.32-.56.09.09.28.09.47.09.47.19,1.04.38,1.32.94.09.19.09.38.09.56-.09.47-.47.75-.85,1.04l-.28.28c-.38.38-.75.56-1.13.75-.19.09-.28.09-.47.09h-.28Z"/>
      <path class="cls-1" d="M344.62,60.68c.09.09.09.19.09.28-.09.19-.38.28-.56.38-2.54,1.13-4.24,3.2-5.93,5.18l-1.69,1.98-1.51,1.69c-2.45,2.73-4.99,5.55-8.09,7.81-.94.66-2.07,1.13-3.2,1.41-.47.09-.94.19-1.41.19-.75,0-1.41-.19-1.98-.56-.94-.56-1.6-1.51-1.88-2.73-.28-.94-.38-1.88-.38-2.82.47-5.55,2.26-10.54,5.36-14.87.56-.85,1.22-1.51,1.98-1.98.85-.47,1.79-.56,2.63-.28.85.38,1.41,1.13,1.69,2.07.38,1.51,0,3.01-.38,4.14-1.13,3.48-3.11,6.49-6.12,9.22-.66.66-1.51,1.41-2.54,1.69-.66.19-.75.56-.75,1.13v.28c.28,1.88.75,2.92,1.51,3.29.75.38,1.88,0,3.48-1.13,2.35-1.6,4.33-3.67,6.21-5.65l4.24-4.23c1.6-1.69,3.29-3.48,5.08-5.08.85-.75,1.88-1.41,3.11-1.88.47-.19.94-.09,1.13.28l-.09.19ZM320.44,72.45c-.09.28-.09.38,0,.47.09.09.19,0,.38-.19.47-.28.85-.56,1.22-.94,2.54-2.45,4.42-5.36,5.65-8.66.38-1.04.56-2.16.66-3.39v-.28c0-.19,0-.47-.09-.75-.09-.47-.19-.75-.38-.85h-.09c-.19,0-.47.09-.85.28-.66.38-1.22.94-1.88,1.79-1.69,2.35-2.92,5.08-3.95,8.66-.28.94-.47,1.88-.66,2.82l-.28.85.28.19Z"/>
      <path class="cls-1" d="M381.14,59.36c.28,0,.56.19.75.47,0-.19-.09-.38-.09-.56.19.19.28.38.28.56-.09.28-.38.47-.66.66l-.28.19c-1.32.94-2.63,1.88-3.95,2.73l-1.69,1.13c-3.29,2.35-6.49,4.89-9.13,7.06-.28.28-.38.47-.38.56s.09.28.38.47c.85.66,1.32,1.41,1.51,2.17.19.75,0,1.6-.09,2.26-.47,2.54-1.6,4.89-3.58,7.25l-.94,1.04c-2.64,2.92-5.46,4.89-8.56,5.93l-1.22.38-1.04.19c-.38.09-.66.19-.94.19h-.56c-.75,0-1.41-.28-1.79-.75-.47-.56-.57-1.41-.28-2.35.75-2.07,2.17-3.86,3.29-5.27,3.11-3.95,6.59-7.62,10.45-10.92.19-.09.38-.28.57-.47-2.17-.56-3.77-.85-5.27-1.04-2.54-.28-5.08-.75-7.53-1.22l-2.26-.28c-1.04-.19-2.07-.56-3.2-1.22-2.35-1.32-3.29-3.58-2.64-6.21.56-2.35,1.51-4.24,2.82-5.84,3.95-4.89,9.13-8.19,15.43-9.69,1.6-.38,3.29-.28,4.99.38,3.48,1.32,4.71,3.95,3.76,7.81-1.04,4.33-3.95,7.44-6.68,9.88-.19.09-.38.28-.56.28-.09,0-.19-.09-.28-.19-.28-.38,0-.66.19-.85,1.13-1.22,2.35-2.54,3.39-4.05,1.51-2.26,2.35-4.24,2.73-6.31.28-1.69,0-3.11-.85-4.14-.19-.28-.47-.47-.75-.66-.85-.56-1.98-.94-3.29-.94-2.73,0-5.18,1.04-7.34,2.16-4.52,2.35-7.62,4.89-9.79,8-1.32,1.88-2.16,3.67-2.54,5.46-.09.47-.09.85-.09,1.22.09,1.51.85,2.64,2.45,3.39,1.51.66,3.11.85,4.71,1.04.28.09.57.19.85.19.28.09.56.09.85.09l1.32.19,2.54.38,1.13.19c2.26.28,4.61.66,6.87,1.32.38.09.57,0,.85-.19,4.8-4.05,9.79-7.62,14.96-11.2l.28-.28c.28-.38.57-.56.94-.56ZM350.08,90.61l.09-.09c.09.19.28.28.47.28.19.09.47.09.85,0,.66-.09,1.41-.28,2.07-.56,4.24-1.69,7.72-4.52,10.45-8.47,1.6-2.35,2.35-4.42,2.45-6.49.09-1.04-.19-1.79-.94-2.35-.19-.09-.38-.19-.47-.19-.19,0-.38.09-.56.28-5.65,4.89-9.6,9.04-12.8,13.46-.56.75-1.04,1.69-1.51,2.82-.28.56-.28,1.04-.09,1.32Z"/>
    </g>
  </g>
</svg>