<?xml version="1.0" encoding="UTF-8"?>
<svg id="_レイヤー_2" data-name="レイヤー 2" xmlns="http://www.w3.org/2000/svg" xmlns:xlink="http://www.w3.org/1999/xlink" viewBox="0 0 267.4 84.74">
  <defs>
    <style>
      .cls-1 {
        fill: url(#_名称未設定グラデーション_33);
      }

      .cls-2 {
        fill: url(#_名称未設定グラデーション_33-2);
      }

      .cls-3 {
        fill: url(#_名称未設定グラデーション_33-5);
      }

      .cls-4 {
        fill: url(#_名称未設定グラデーション_33-4);
      }

      .cls-5 {
        fill: url(#_名称未設定グラデーション_33-3);
      }
    </style>
    <linearGradient id="_名称未設定グラデーション_33" data-name="名称未設定グラデーション 33" x1="0" y1="42.37" x2="84.74" y2="42.37" gradientUnits="userSpaceOnUse">
      <stop offset="0" stop-color="#fff"/>
      <stop offset="1" stop-color="#fff"/>
    </linearGradient>
    <linearGradient id="_名称未設定グラデーション_33-2" data-name="名称未設定グラデーション 33" x1="106.81" y1="42.43" x2="143.65" y2="42.43" xlink:href="#_名称未設定グラデーション_33"/>
    <linearGradient id="_名称未設定グラデーション_33-3" data-name="名称未設定グラデーション 33" x1="159.52" y1="47.11" x2="188.42" y2="47.11" xlink:href="#_名称未設定グラデーション_33"/>
    <linearGradient id="_名称未設定グラデーション_33-4" data-name="名称未設定グラデーション 33" x1="203.96" y1="47.11" x2="232.86" y2="47.11" xlink:href="#_名称未設定グラデーション_33"/>
    <linearGradient id="_名称未設定グラデーション_33-5" data-name="名称未設定グラデーション 33" x1="246.93" y1="44.07" x2="267.4" y2="44.07" xlink:href="#_名称未設定グラデーション_33"/>
  </defs>
  <g id="_ロゴ" data-name="ロゴ">
    <g>
      <path class="cls-1" d="M34.53,84c2.54.48,5.16.74,7.84.74,23.36,0,42.37-19.01,42.37-42.37S65.73,0,42.37,0c-2.76,0-5.46.27-8.07.78l.52,3.44c2.44-.48,4.97-.74,7.55-.74,21.44,0,38.89,17.44,38.89,38.89s-17.44,38.89-38.89,38.89c-1.47,0-2.93-.09-4.36-.26v-19.48h4.36c11.92,0,20.25-7.88,20.25-19.15s-8.33-19.15-20.25-19.15h-7.84v34.82h-3.54V1.57C13.14,6.55,0,22.95,0,42.37s12.82,35.42,30.35,40.62l1.13-3.3C15.32,74.97,3.48,60.03,3.48,42.37,3.48,26.19,13.42,12.31,27.5,6.46v55.06h7.03v22.48ZM38.01,26.7h4.36c10.03,0,16.77,6.3,16.77,15.67s-6.74,15.67-16.77,15.67h-4.36v-31.34Z"/>
      <g>
        <path class="cls-2" d="M106.81,23.27h16.15c12.31,0,20.69,7.77,20.69,19.16s-8.37,19.16-20.69,19.16h-16.15V23.27ZM122.63,56.82c9.47,0,15.54-5.8,15.54-14.39s-6.08-14.4-15.54-14.4h-10.34v28.79h10.34Z"/>
        <path class="cls-5" d="M188.31,48.83h-23.54c.66,5.09,4.76,8.48,10.51,8.48,3.39,0,6.24-1.15,8.37-3.5l2.9,3.39c-2.63,3.07-6.62,4.71-11.44,4.71-9.36,0-15.6-6.18-15.6-14.83s6.19-14.78,14.56-14.78,14.34,6.02,14.34,14.94c0,.44-.05,1.09-.11,1.59ZM164.77,45.05h18.61c-.55-4.87-4.21-8.32-9.3-8.32s-8.76,3.39-9.3,8.32Z"/>
        <path class="cls-4" d="M232.75,48.83h-23.54c.66,5.09,4.76,8.48,10.51,8.48,3.39,0,6.24-1.15,8.37-3.5l2.9,3.39c-2.63,3.07-6.62,4.71-11.44,4.71-9.36,0-15.6-6.18-15.6-14.83s6.19-14.78,14.56-14.78,14.34,6.02,14.34,14.94c0,.44-.05,1.09-.11,1.59ZM209.22,45.05h18.61c-.55-4.87-4.21-8.32-9.3-8.32s-8.76,3.39-9.3,8.32Z"/>
        <path class="cls-3" d="M267.4,59.89c-1.59,1.37-4,2.02-6.35,2.02-5.86,0-9.2-3.23-9.2-9.08v-15.93h-4.93v-4.32h4.93v-6.35h5.25v6.35h8.32v4.32h-8.32v15.71c0,3.12,1.64,4.87,4.54,4.87,1.53,0,3.01-.49,4.1-1.37l1.64,3.78Z"/>
      </g>
    </g>
  </g>
</svg>