<?xml version="1.0" encoding="UTF-8"?>
<svg id="_レイヤー_2" xmlns="http://www.w3.org/2000/svg" version="1.1" viewBox="0 0 267.4 84.7">
  <!-- Generator: Adobe Illustrator 29.0.0, SVG Export Plug-In . SVG Version: 2.1.0 Build 186)  -->
  <g id="_ロゴ">
    <g>
      <path d="M34.5,84c2.5.5,5.2.7,7.8.7,23.4,0,42.4-19,42.4-42.4S65.7,0,42.4,0s-5.5.3-8.1.8l.5,3.4c2.4-.5,5-.7,7.5-.7,21.4,0,38.9,17.4,38.9,38.9s-17.4,38.9-38.9,38.9-2.9,0-4.4-.3v-19.5h4.4c11.9,0,20.2-7.9,20.2-19.1s-8.3-19.1-20.2-19.1h-7.8v34.8h-3.5V1.6C13.1,6.6,0,23,0,42.4s12.8,35.4,30.4,40.6l1.1-3.3C15.3,75,3.5,60,3.5,42.4S13.4,12.3,27.5,6.5v55.1h7v22.5ZM38,26.7h4.4c10,0,16.8,6.3,16.8,15.7s-6.7,15.7-16.8,15.7h-4.4v-31.3Z"/>
      <g>
        <path d="M106.8,23.3h16.2c12.3,0,20.7,7.8,20.7,19.2s-8.4,19.2-20.7,19.2h-16.2s0-38.3,0-38.3ZM122.6,56.8c9.5,0,15.5-5.8,15.5-14.4s-6.1-14.4-15.5-14.4h-10.3v28.8h10.3Z"/>
        <path d="M188.3,48.8h-23.5c.7,5.1,4.8,8.5,10.5,8.5s6.2-1.2,8.4-3.5l2.9,3.4c-2.6,3.1-6.6,4.7-11.4,4.7-9.4,0-15.6-6.2-15.6-14.8s6.2-14.8,14.6-14.8,14.3,6,14.3,14.9,0,1.1-.1,1.6h0ZM164.8,45h18.6c-.6-4.9-4.2-8.3-9.3-8.3s-8.8,3.4-9.3,8.3h0Z"/>
        <path d="M232.8,48.8h-23.5c.7,5.1,4.8,8.5,10.5,8.5s6.2-1.2,8.4-3.5l2.9,3.4c-2.6,3.1-6.6,4.7-11.4,4.7-9.4,0-15.6-6.2-15.6-14.8s6.2-14.8,14.6-14.8,14.3,6,14.3,14.9,0,1.1-.1,1.6h0ZM209.2,45h18.6c-.6-4.9-4.2-8.3-9.3-8.3s-8.8,3.4-9.3,8.3h0Z"/>
        <path d="M267.4,59.9c-1.6,1.4-4,2-6.4,2-5.9,0-9.2-3.2-9.2-9.1v-15.9h-4.9v-4.3h4.9v-6.4h5.2v6.4h8.3v4.3h-8.3v15.7c0,3.1,1.6,4.9,4.5,4.9s3-.5,4.1-1.4l1.6,3.8h0Z"/>
      </g>
    </g>
  </g>
</svg>